<svg xmlns="http://www.w3.org/2000/svg" xmlns:xlink="http://www.w3.org/1999/xlink" width="199.594" height="50.422" viewBox="0 0 199.594 50.422"><defs><clipPath id="a"><rect width="199.594" height="50.422" transform="translate(0 0)" fill="none"/></clipPath></defs><g clip-path="url(#a)"><path d="M19.824,55.273a2.019,2.019,0,0,0-.576-.732,6.7,6.7,0,0,0-1.449-.9,1.077,1.077,0,0,1-.491-.393,4.26,4.26,0,0,1-.7-1.863c-.109-1.219-.285-2.434-.274-3.663,0-.384,0-.77-.037-1.153a51.5,51.5,0,0,0-.869-5.393,9.769,9.769,0,0,1-.217-1.777c0-.381.031-.411.418-.367a.574.574,0,0,1,.085.012,1.592,1.592,0,0,0,1.232-.191.261.261,0,0,1,.274-.032c.282.133.327.117.46-.181a17.047,17.047,0,0,0,1.438-4.809,9.585,9.585,0,0,0-.16-3.568,11.14,11.14,0,0,0-2.092-4.216,7.318,7.318,0,0,0-1.356-1.3c-.087-.066-.184-.167-.3-.115s-.079.2-.084.3a1.011,1.011,0,0,1-.076.516c-.208-.686-.39-1.291-.575-1.9-.07-.229-.172-.45,0-.686.069-.092.018-.222,0-.334-.039-.21-.082-.419-.119-.629-.114-.66-.124-1.331-.225-1.994a2.732,2.732,0,0,0-1.367-2.01l-.949-.577c-.106-.065-.242-.1-.261-.289.23-.048.341.1.479.191.287.183.387.156.412-.175a2.726,2.726,0,0,1,.4-1.157.69.69,0,0,0,.075-.2.253.253,0,0,1,.306-.223c.1.009.214.037.263-.079.091-.215.214-.182.367-.076.068.047.152.109.235.057.11-.068.052-.179.033-.272-.162-.795-.322-1.59-.491-2.383a3.438,3.438,0,0,0-1.649-2.522c-.147-.081-.143-.188,0-.239a1.469,1.469,0,0,1,.818-.187.531.531,0,0,0,.511-.155.229.229,0,0,1,.367-.008,2.326,2.326,0,0,0,.423.287.353.353,0,0,0,.524-.111q.484-.6.944-1.215a.323.323,0,0,0-.08-.515,4.333,4.333,0,0,0-.5-.331A7.619,7.619,0,0,0,9.427,6.686a4.509,4.509,0,0,0-3.545,3.848c-.078.64-.043,1.281-.079,1.92a3.356,3.356,0,0,1-1,2.338,1.205,1.205,0,0,0-.145.156c-.072.1-.026.17.081.171a1.182,1.182,0,0,0,.652-.178,2.943,2.943,0,0,0,1.55-2.037.458.458,0,0,1,.215-.4.513.513,0,0,0,.289-.439.645.645,0,0,1,.4-.469.208.208,0,0,1,.2,0c.077.048.046.119.02.188a3.991,3.991,0,0,0-.212,1.429,2.163,2.163,0,0,1-.433,1.482c-.141.169-.1.265.087.375.32.191.305.186.189.514a.723.723,0,0,1-.483.443,31.979,31.979,0,0,0-2.973,1.4,1.1,1.1,0,0,0-.658,1.05c-.007.3,0,.6.006.9a2.072,2.072,0,0,1-.48,1.382c-.173.208-.355.409-.521.623a2.537,2.537,0,0,0-.664,1.8c.022.267-.033.54-.034.81a2.2,2.2,0,0,1-.757,1.7,2.278,2.278,0,0,0-.652,1.175,8.178,8.178,0,0,0-.183,2.588,26.174,26.174,0,0,1,0,2.862,1.715,1.715,0,0,1-.147.664c.086.361.245.7.334,1.047a2.076,2.076,0,0,1,.286.183,4.122,4.122,0,0,0,.424.288,2.842,2.842,0,0,0,1.408.4.258.258,0,0,1,.057-.054,2.407,2.407,0,0,0,.809-.976.206.206,0,0,1,.109-.109,1.11,1.11,0,0,0-.634-1.216.718.718,0,0,1-.379-.667,4.9,4.9,0,0,1,.394-2.037c.308-.795.668-1.57.908-2.391a6.624,6.624,0,0,0,.331-1.97.827.827,0,0,1,.292-.675c.232-.209.436-.449.658-.669.191-.188.276-.176.421.061a6.218,6.218,0,0,1,.9,3.033,6.5,6.5,0,0,1-.7,3,41.457,41.457,0,0,0-1.711,4.459c-.044.137-.081.276-.126.417a4.937,4.937,0,0,1-.208.89,2.46,2.46,0,0,0-.16,1.042.339.339,0,0,1,.044.228,10.464,10.464,0,0,0,.021,2.005A2.79,2.79,0,0,1,3.381,40.8c-.143.31-.3.614-.469.911-.272.484-.559.96-.784,1.468a10.168,10.168,0,0,0-.721,3.1,34.013,34.013,0,0,0-.1,5.5,1.738,1.738,0,0,1-.1.708,9.512,9.512,0,0,0-.53,1.53,1.864,1.864,0,0,1-.333.779,1.839,1.839,0,0,0-.185.336c-.389.875-.06,1.418.895,1.484a9.182,9.182,0,0,0,1.746-.1c.394-.048.5-.232.411-.631-.021-.1-.047-.194-.068-.291a2.512,2.512,0,0,1,.227-1.9,1.155,1.155,0,0,0,.074-1.023A2.536,2.536,0,0,1,3.457,51c.355-1.021.8-2.006,1.15-3.031a13.3,13.3,0,0,0,.8-3.308c.03-.426.058-.853.12-1.275a5.854,5.854,0,0,1,1-2.2,31.463,31.463,0,0,0,2.377-4.341c.088-.209.152-.429.243-.638s.192-.214.33-.026a9.762,9.762,0,0,1,1.4,2.581c.382,1.1.679,2.235,1.158,3.3a2.1,2.1,0,0,1,.162,1.243,6.063,6.063,0,0,0,.175,2.746A37.92,37.92,0,0,0,13.71,49.7a5.309,5.309,0,0,1,.42,3.573,4.138,4.138,0,0,0-.112.889c-.034.637.158.852.785.928.127.015.253.037.379.056a3.668,3.668,0,0,1,1.5.69A4.23,4.23,0,0,0,18.1,56.5a1.935,1.935,0,0,0,1.294-.1.813.813,0,0,0,.427-1.135" transform="translate(0 -6.215)" fill="#fff"/><path d="M587.078,522.63c.123-.461.243-.9.358-1.339q.436-1.671.868-3.343.488-1.879.977-3.758.5-1.934,1.009-3.868a1.017,1.017,0,0,0,.051-.193c.016-.3.032-.326.4-.326l6,0,3.116,0c.076,0,.153,0,.229,0,.185.016.212.044.218.226,0,.1,0,.21,0,.314q0,11.805,0,23.611c0,.048,0,.1,0,.143.011.136-.058.191-.186.193-.086,0-.171.005-.257.005h-6.117c-.067,0-.133,0-.2,0-.242-.012-.261-.032-.261-.267q0-4.516,0-9.033,0-3.745,0-7.489a.509.509,0,0,0-.035-.277c-.063.01-.072.062-.078.106a15.212,15.212,0,0,1-.39,1.549c-.233.952-.487,1.9-.734,2.847-.278,1.068-.561,2.135-.839,3.2s-.546,2.119-.82,3.179q-.354,1.368-.712,2.735c-.227.875-.456,1.75-.675,2.626a3.476,3.476,0,0,0-.151.638.176.176,0,0,1-.187.176c-.086,0-.171.01-.257.01h-4c-.086,0-.171,0-.257-.008a.208.208,0,0,1-.21-.189q-.24-.97-.5-1.934-.586-2.193-1.178-4.384-.578-2.15-1.156-4.3c-.433-1.618-.859-3.238-1.3-4.855a12.794,12.794,0,0,1-.334-1.3.083.083,0,0,0-.088-.078.317.317,0,0,0-.032.2q-.006,7.6-.009,15.207c0,.457,0,.915.007,1.372,0,.226-.014.246-.235.261-.085.006-.171.005-.257.005h-4.831c-.057,0-.114,0-.171,0a.158.158,0,0,1-.175-.178c0-.162,0-.324,0-.486q0-8,0-16.007,0-3.687,0-7.375c0-.441,0-.444.437-.444l9.033,0c.33,0,.348.009.435.325q.555,2.024,1.1,4.049.5,1.832,1,3.663t1,3.662c.075.275.147.552.228.825a.584.584,0,0,0,.148.308" transform="translate(-546.376 -485.528)" fill="#fff"/><path d="M3234.255,523.16c-.08-.189-.148-.385-.242-.567-.387-.753-.785-1.5-1.219-2.23-1.161-1.947-2.411-3.839-3.62-5.755-.95-1.506-1.913-3-2.858-4.513a.474.474,0,0,0-.479-.273c-.047,0-.1,0-.143,0h-6.117c-.1,0-.21,0-.314,0-.234.01-.241.018-.242.245q0,.4,0,.8l0,23.125c0,.3.016.32.326.32l5.4,0c.085,0,.171,0,.257-.009a.147.147,0,0,0,.154-.167c0-.152-.008-.3-.008-.457,0-3.363-.007-6.727.005-10.091a18.418,18.418,0,0,0-.44-4.45c-.016-.066-.066-.137-.011-.218.162.109.16.3.23.45.516,1.094,1.048,2.179,1.658,3.223,1.091,1.866,2.262,3.684,3.4,5.524,1.234,2,2.476,4,3.709,6a.333.333,0,0,0,.293.187c.085,0,.171.007.257.007h5.26c.086,0,.172,0,.257-.007.186-.018.207-.043.207-.231,0-.267-.005-.533-.005-.8q0-11.234,0-22.468c0-.21,0-.419,0-.629.011-.332,0-.349-.344-.36h-.057l-5.374,0c-.076,0-.152,0-.228.011a.134.134,0,0,0-.141.145c0,.057,0,.114,0,.172.014,2.668-.019,5.336.023,8a39.264,39.264,0,0,0,.344,4.126,5.959,5.959,0,0,1,.12.871l-.058.009" transform="translate(-3065.78 -485.55)" fill="#fff"/><path d="M1692.976,522.076q0,5.8,0,11.6c0,.143-.007.286,0,.429.006.2.026.221.237.232.047,0,.1,0,.143,0h9.174a18.348,18.348,0,0,0,2.023-.111,12.286,12.286,0,0,0,2.45-.526,10.7,10.7,0,0,0,2.054-.917,11.388,11.388,0,0,0,3.887-3.833,11.635,11.635,0,0,0,1.109-2.4,12.455,12.455,0,0,0,.48-1.966,13.143,13.143,0,0,0,.2-2.417,17.623,17.623,0,0,0-.084-1.853,13.4,13.4,0,0,0-.645-2.775,12.865,12.865,0,0,0-1.98-3.584,9.882,9.882,0,0,0-2.286-2.177,10.14,10.14,0,0,0-2.482-1.2,13.182,13.182,0,0,0-2.161-.519,20.853,20.853,0,0,0-3.19-.208c-2.629.007-5.259,0-7.888,0-.257,0-.515,0-.772,0s-.262.009-.262.28v11.946Zm7.531-6.324c0-.048,0-.1,0-.143,0-.145.075-.2.218-.193.3.008.591.017.886,0a9.574,9.574,0,0,1,1.735.125,2.513,2.513,0,0,1,.925.364,3.5,3.5,0,0,1,1,.843,6.64,6.64,0,0,1,.867,1.471,8.835,8.835,0,0,1,.663,2.705,12.415,12.415,0,0,1-.093,2.9,7.261,7.261,0,0,1-.471,1.789,5.848,5.848,0,0,1-1.576,2.242,3.6,3.6,0,0,1-2.324.809q-.8,0-1.6,0c-.2,0-.212-.008-.222-.2-.007-.142,0-.286,0-.428q0-3,0-6h0q0-3.144,0-6.287" transform="translate(-1612.38 -485.575)" fill="#fff"/><path d="M1222.383,522.035q0,5.831,0,11.662c0,.143-.006.286,0,.428a.155.155,0,0,0,.178.173c.057,0,.114,0,.171,0h17.494c.124,0,.248,0,.371-.007.189-.014.21-.042.208-.227,0-.4-.011-.8-.011-1.2q0-2.072.009-4.144c0-.253-.034-.293-.3-.292-.515,0-1.029.007-1.543.007h-8.89c-.283,0-.29-.008-.3-.28,0-.038,0-.076,0-.114q0-1.143,0-2.287c0-.343,0-.686,0-1.029,0-.248.019-.262.256-.265l.086,0,8.29,0c.252,0,.29-.032.29-.273q0-2.473,0-4.945c0-.212-.033-.244-.247-.263-.057-.005-.114,0-.171,0l-7.947,0c-.124,0-.248,0-.371.005s-.192-.055-.184-.188c0-.066,0-.133,0-.2q0-1.3,0-2.6c0-.1,0-.191,0-.286,0-.206.019-.219.235-.225.029,0,.057,0,.086,0h10.147c.114,0,.229,0,.343-.005.209-.013.226-.036.225-.239,0-.981-.009-1.962-.009-2.944,0-.743.005-1.486.01-2.229,0-.217-.025-.251-.235-.268-.066-.005-.133,0-.2,0q-2.558,0-5.117,0h-12.491c-.376,0-.376,0-.373.364,0,.029,0,.057,0,.086v11.777Z" transform="translate(-1164.188 -485.535)" fill="#fff"/><path d="M2308.43,18.069l-.352-1.453q-.4-1.669-.808-3.339-.374-1.543-.75-3.086-.427-1.753-.854-3.506c-.075-.306-.081-.3-.387-.3l-5.2.006c-.067,0-.135,0-.2,0-.22.014-.235.027-.181.241.125.494.258.987.389,1.479q.516,1.939,1.034,3.878.664,2.5,1.325,4.994c.274,1.032.552,2.064.826,3.1q.6,2.246,1.19,4.493c.182.688.369,1.376.543,2.066.091.361.084.367.453.378h4.74c.115,0,.231-.013.346-.016s.167-.069.184-.18c.078-.5.223-.994.34-1.491.357-1.527.725-3.052,1.091-4.577q.539-2.245,1.084-4.489a1.314,1.314,0,0,1,.188-.5,8.285,8.285,0,0,0,.189.868c.448,1.733.883,3.469,1.321,5.2q.6,2.366,1.191,4.732c.112.448.107.451.568.451q2.211,0,4.422,0a2.247,2.247,0,0,0,.26-.013c.219-.026.227-.041.281-.257.135-.541.271-1.083.413-1.622.226-.856.461-1.709.687-2.565.237-.893.467-1.787.7-2.68.227-.856.46-1.709.687-2.565.284-1.069.563-2.14.847-3.209s.571-2.138.855-3.207q.534-2.008,1.066-4.017.044-.167.077-.338a.122.122,0,0,0-.12-.159,1.5,1.5,0,0,0-.173-.007l-4.133.008-.231,0a.2.2,0,0,0-.214.184q-.7,2.948-1.417,5.895-.614,2.54-1.234,5.078a2.717,2.717,0,0,1-.189.571,1.2,1.2,0,0,1-.1-.394q-.409-1.564-.811-3.129-.51-1.985-1.017-3.971t-1.015-3.942c-.078-.3-.088-.3-.392-.3l-4.191.007c-.087,0-.174,0-.26,0-.229.015-.257.043-.308.262q-.45,1.926-.9,3.851-.333,1.42-.666,2.839-.493,2.094-.988,4.187c-.043.183-.1.364-.149.546l-.054-.008" transform="translate(-2190.195 -6.078)" fill="#fff"/><path d="M3729.734,534.327c.286,0,.572,0,.857-.005.21,0,.24-.048.18-.239s-.134-.4-.2-.6q-.73-2.329-1.458-4.658-.886-2.834-1.771-5.667l-1.465-4.686q-.724-2.316-1.448-4.632-.578-1.853-1.148-3.708c-.079-.257-.122-.3-.4-.3-.038,0-.076,0-.114,0l-6.974,0c-.133,0-.267.005-.4,0s-.187.048-.229.188c-.315,1.058-.645,2.111-.971,3.166l-1.147,3.709q-.573,1.855-1.145,3.71-.494,1.6-.991,3.189-.654,2.113-1.3,4.228-.5,1.637-1.007,3.274c-.269.873-.536,1.747-.814,2.617-.131.409-.142.408.29.408h5.288c.086,0,.171,0,.257-.006a.21.21,0,0,0,.22-.178c.141-.494.292-.985.441-1.477.279-.919.554-1.84.839-2.757.128-.411.136-.409.571-.409l5.8-.006c.272,0,.3.026.394.346q.6,2.115,1.2,4.23c.069.242.077.25.333.258.067,0,.134,0,.2,0h6.116m-10.9-16.023q.673,2.4,1.342,4.8c.079.284.16.567.229.853.037.157.014.181-.154.181q-1.755,0-3.51,0c-.163,0-.2-.039-.159-.216.062-.278.144-.551.221-.825q.336-1.193.674-2.385c.251-.887.508-1.771.749-2.661a5.2,5.2,0,0,0,.212-.849l.075.011c.107.362.219.722.321,1.085" transform="translate(-3531.205 -485.561)" fill="#fff"/><path d="M2472.055,513a10.225,10.225,0,0,1,.611-2.748,3.82,3.82,0,0,1,.979-1.486,2.62,2.62,0,0,1,2.476-.607,2.976,2.976,0,0,1,2.067,1.893,6.152,6.152,0,0,1,.344,1.352,7.354,7.354,0,0,1,.065,1.025c.008.245.051.279.294.269.029,0,.057-.007.085-.008.81-.027,1.616-.12,2.425-.138,1.315-.03,2.624-.182,3.939-.2.3,0,.313-.033.278-.318-.073-.576-.141-1.153-.266-1.721a11.836,11.836,0,0,0-.68-2.146,9.854,9.854,0,0,0-1.767-2.751,8.261,8.261,0,0,0-1.72-1.45,9.615,9.615,0,0,0-3.462-1.271,14.358,14.358,0,0,0-2.189-.189,13.6,13.6,0,0,0-1.826.066,10.828,10.828,0,0,0-2.607.6,9.216,9.216,0,0,0-2.461,1.368,10,10,0,0,0-2.125,2.3,12.615,12.615,0,0,0-1.688,3.7,15.852,15.852,0,0,0-.568,3.46,19.335,19.335,0,0,0,.094,3.566,15.042,15.042,0,0,0,.814,3.406,10.17,10.17,0,0,0,7.778,6.525,12.531,12.531,0,0,0,2.073.2,11.942,11.942,0,0,0,3.807-.485,9.706,9.706,0,0,0,3.484-1.9,9.255,9.255,0,0,0,2.912-4.682,19.655,19.655,0,0,0,.4-1.985c.035-.2-.013-.248-.253-.268-.978-.083-1.961-.083-2.938-.175-.873-.083-1.752-.06-2.624-.162-.274-.032-.551-.036-.827-.051-.142-.008-.22.035-.242.2a8.773,8.773,0,0,1-.264,1.373,4.029,4.029,0,0,1-.781,1.51,2.805,2.805,0,0,1-2.384.93,2.882,2.882,0,0,1-.708-.082,3.069,3.069,0,0,1-1.8-1.446,4.882,4.882,0,0,1-.559-1.611,19.58,19.58,0,0,1-.3-3.645c.021-.7.039-1.459.119-2.219" transform="translate(-2346.913 -478.582)" fill="#fff"/><path d="M1433.235,26.645c0,.507,0,.508.521.508h5c.183,0,.366,0,.549-.009.289-.016.288-.019.279-.3,0-.077,0-.154,0-.231q0-3.28,0-6.56c0-.193.007-.386,0-.578-.007-.153.063-.208.205-.208.53,0,1.06,0,1.589,0a.231.231,0,0,1,.264.206.809.809,0,0,0,.045.137q1.39,3.656,2.779,7.312a.286.286,0,0,0,.294.222c.067,0,.135.008.2.008l6.156,0c.106,0,.212,0,.318-.008s.149-.079.11-.177c-.048-.125-.111-.245-.163-.37q-1.126-2.705-2.25-5.412-.576-1.386-1.153-2.772c-.1-.242-.088-.272.134-.383a8.942,8.942,0,0,0,1.355-.824,4.524,4.524,0,0,0,1.642-2.178,6.552,6.552,0,0,0,.344-3.125,5.432,5.432,0,0,0-.1-.772,6.3,6.3,0,0,0-.736-1.716,5.944,5.944,0,0,0-2.883-2.259,6.025,6.025,0,0,0-.9-.3c-.465-.074-.917-.219-1.389-.259-.788-.067-1.578-.069-2.368-.07l-9.422,0c-.417,0-.418,0-.418.412q0,4.956,0,9.913,0,4.9,0,9.8m6.348-15.461c0-.238.012-.256.236-.256,1.049,0,2.1,0,3.147.014a2.32,2.32,0,0,1,1.022.274,1.589,1.589,0,0,1,.878,1.276,2.192,2.192,0,0,1-.049.973,1.791,1.791,0,0,1-1.151,1.131,3.406,3.406,0,0,1-1.071.21c-.923.051-1.847.015-2.771.022-.209,0-.238-.033-.24-.266,0-.568,0-1.136,0-1.7s0-1.116,0-1.675" transform="translate(-1365.008 -6.212)" fill="#fff"/><path d="M3354.877,16.842q0,3.613,0,7.226c0,.886.011,1.773-.008,2.659-.009.42-.03.433.417.434q2.76.007,5.521,0c.411,0,.4-.008.4-.427q0-3.6,0-7.2c0-.232.017-.254.241-.256.511,0,1.021,0,1.532,0a.273.273,0,0,1,.293.212c.586,1.558,1.181,3.113,1.773,4.669.335.881.675,1.761,1,2.645.129.346.119.35.486.361h.087l6.012,0q.159,0,.318-.006c.257-.01.278-.042.181-.266-.042-.1-.09-.192-.13-.29q-1.136-2.733-2.271-5.466-.565-1.36-1.129-2.72c-.1-.24-.088-.265.143-.379a8.881,8.881,0,0,0,1.331-.808,4.513,4.513,0,0,0,1.644-2.143,6.562,6.562,0,0,0,.357-3.209,4.639,4.639,0,0,0-.091-.715,6.346,6.346,0,0,0-.734-1.717,5.771,5.771,0,0,0-1.292-1.385,6.691,6.691,0,0,0-1.659-.922,9.469,9.469,0,0,0-2.241-.52,18.607,18.607,0,0,0-2.31-.076l-9.481,0c-.086,0-.173,0-.26.012a.142.142,0,0,0-.142.151c0,.067,0,.135,0,.2v9.943Zm6.337-5.645c0-.237.013-.258.235-.258,1.059,0,2.118,0,3.176.016a2.254,2.254,0,0,1,.969.258,1.607,1.607,0,0,1,.92,1.431,2.04,2.04,0,0,1-.1.938,1.716,1.716,0,0,1-.722.836,3.105,3.105,0,0,1-1.46.4c-.923.049-1.848.014-2.772.022-.209,0-.244-.036-.246-.263-.006-.578,0-1.155,0-1.733h0c0-.549,0-1.1,0-1.646" transform="translate(-3195.162 -6.223)" fill="#fff"/><path d="M1881.2,26.583c0,.116,0,.231-.008.347-.008.147.06.213.2.215.125,0,.25.011.375.011q3.512,0,7.024,0a18.048,18.048,0,0,0,2.363-.121,10.19,10.19,0,0,0,2.371-.6,8.826,8.826,0,0,0,2.921-1.878A9.8,9.8,0,0,0,1899.361,19a14.443,14.443,0,0,0,.174-2.821,10.177,10.177,0,0,0-.37-2.421,10.822,10.822,0,0,0-1.892-3.768,8.365,8.365,0,0,0-4.972-3.136,11.712,11.712,0,0,0-2.054-.3c-.664-.03-1.329-.026-1.994-.027q-3.324-.006-6.648-.005c-.4,0-.4,0-.4.4q0,4.943,0,9.886,0,4.885,0,9.77m6.348-15.009c0-.058,0-.116,0-.173a.14.14,0,0,1,.154-.165c.144,0,.289-.005.433,0a11.266,11.266,0,0,1,1.643.052,2.839,2.839,0,0,1,1.74.994,5.851,5.851,0,0,1,1.149,2.4,8.1,8.1,0,0,1,.212,2.005,9.566,9.566,0,0,1-.207,2.18,5.221,5.221,0,0,1-1.39,2.616,2.83,2.83,0,0,1-1.841.861c-.53.032-1.059.023-1.588.034-.289.006-.305-.014-.306-.316q0-2.644,0-5.287h0v-5.2" transform="translate(-1791.644 -6.214)" fill="#fff"/><path d="M575.95,16.729q0,.708,0,1.416,0,4.22,0,8.44c0,.467,0,.472.44.473q2.731,0,5.463,0c.445,0,.445-.006.441-.456,0-.01,0-.019,0-.029q0-3.569,0-7.139c0-.067,0-.135,0-.2-.008-.135.062-.2.189-.2.154,0,.308,0,.462,0l3.844-.007c.321,0,.326,0,.327.313s0,.617,0,.925q-.006,3.251-.012,6.5c0,.241.019.265.255.286.048,0,.1,0,.144,0l5.463,0c.087,0,.174,0,.26-.01.238-.02.244-.027.242-.254,0-.106-.005-.212-.005-.318q0-9.451,0-18.9c0-.3.01-.6.01-.9,0-.2-.03-.239-.231-.246-.25-.009-.5,0-.751,0l-5.029,0c-.337,0-.348.009-.348.33q0,3.425,0,6.85c0,.406,0,.407-.392.407h-4.046c-.378,0-.384,0-.385-.389q0-1.691,0-3.382,0-1.777.008-3.555c0-.221-.023-.246-.245-.263-.038,0-.077,0-.116,0l-5.607,0c-.377,0-.384.007-.384.388q0,4.957,0,9.914Z" transform="translate(-548.53 -6.117)" fill="#fff"/><path d="M2906.794,6.467a9.3,9.3,0,0,0-3.325-4.678,8.747,8.747,0,0,0-2.914-1.422A10.182,10.182,0,0,0,2897.7,0a13.559,13.559,0,0,0-1.815.1,9.825,9.825,0,0,0-2.392.635,8.507,8.507,0,0,0-3.37,2.555,10.36,10.36,0,0,0-2,4.06,13.172,13.172,0,0,0-.372,3.09,14.094,14.094,0,0,0,.378,3.552,9.662,9.662,0,0,0,1.5,3.32,9.312,9.312,0,0,0,3.141,2.8,9.8,9.8,0,0,0,3.859,1.1,10.809,10.809,0,0,0,3.552-.284,8.526,8.526,0,0,0,3.069-1.422,9.6,9.6,0,0,0,2.332-2.462,10.3,10.3,0,0,0,1.388-3.216,14.813,14.813,0,0,0,.384-3.592,12.51,12.51,0,0,0-.566-3.773m-6.5,7.151a4.578,4.578,0,0,1-.716,1.932,2.237,2.237,0,0,1-1.333.9,2.763,2.763,0,0,1-1.2.037,2.248,2.248,0,0,1-1.336-.795,4.2,4.2,0,0,1-.786-1.655,15,15,0,0,1-.317-4.191,11.532,11.532,0,0,1,.342-2.542,4.218,4.218,0,0,1,.83-1.731,2.242,2.242,0,0,1,1.647-.845,2.585,2.585,0,0,1,1.163.147,2.518,2.518,0,0,1,1.276,1.279,6.573,6.573,0,0,1,.6,2.453,18.178,18.178,0,0,1,.066,1.906,21.361,21.361,0,0,1-.234,3.109" transform="translate(-2750.284 -0.002)" fill="#fff"/><path d="M3809.092,14.51q0-3.715,0-7.429c0-.193.008-.386,0-.578s-.044-.234-.244-.235c-.279,0-.559.011-.838.011l-4.538,0c-.348,0-.357.009-.357.353q0,1.908,0,3.816,0,7.978,0,15.957c0,.5,0,.5.49.5q2.37,0,4.741,0c.183,0,.366,0,.549-.013.2-.013.2-.023.2-.228,0-1.407,0-2.814-.01-4.22a.871.871,0,0,1,.161-.539c.491-.691.976-1.386,1.464-2.079.127-.181.252-.365.385-.541.074-.1.134-.088.2.017a.975.975,0,0,1,.049.1l1.644,3.6c.544,1.191,1.1,2.377,1.624,3.576a.471.471,0,0,0,.5.33q3.136-.013,6.273-.015c.058,0,.116,0,.173,0,.1-.01.132-.073.09-.161-.066-.139-.144-.273-.212-.411q-3.031-6.137-6.067-12.271a.4.4,0,0,1,.043-.469c.527-.748,1.046-1.5,1.567-2.254l3.289-4.751a.913.913,0,0,0,.09-.147c.04-.09.009-.15-.093-.161a.925.925,0,0,0-.115,0c-1.647.032-3.3.009-4.943.013-.077,0-.154,0-.231,0a.4.4,0,0,0-.359.2q-1.157,1.746-2.321,3.488-1.509,2.258-3.023,4.513c-.035.052-.051.129-.165.127a.819.819,0,0,1-.012-.1" transform="translate(-3622.069 -5.965)" fill="#fff"/><path d="M992.659,6.389q-1.532,0-3.064,0c-.284,0-.321.027-.4.276-.17.552-.335,1.1-.505,1.657q-.65,2.11-1.3,4.22-.58,1.875-1.162,3.75-.593,1.917-1.184,3.834-.57,1.848-1.14,3.7c-.284.919-.563,1.84-.857,2.757-.138.431-.148.434.3.435q2.154,0,4.307,0c.077,0,.154-.007.231-.008a.248.248,0,0,0,.262-.211c.35-1.18.709-2.358,1.064-3.537.082-.273.126-.31.4-.31l4.827,0c.058,0,.116,0,.173,0,.162-.008.237.071.28.226.333,1.2.673,2.389,1.011,3.584.063.222.081.237.319.251.048,0,.1,0,.145,0l5.463,0c.144,0,.289,0,.433-.013s.178-.047.129-.2c-.076-.239-.158-.475-.233-.714q-.727-2.328-1.453-4.657-.892-2.852-1.788-5.7-.978-3.127-1.951-6.256-.433-1.392-.858-2.786c-.079-.257-.133-.3-.413-.3h-3.035v.008m-.3,7.2c.425,1.49.848,2.98,1.257,4.475.112.411.081.369-.28.369H990.7c-.278,0-.311-.036-.24-.293.158-.575.324-1.148.486-1.722q.357-1.264.713-2.527c.084-.3.165-.593.265-.883.043-.125-.008-.271.117-.419a7.961,7.961,0,0,1,.313,1" transform="translate(-936.169 -6.077)" fill="#fff"/><path d="M2971.8,522.033q0,1.758,0,3.515,0,4.215-.005,8.431c0,.3.017.319.327.319l6.831,0c.066,0,.133-.005.2,0,.136,0,.189-.066.179-.2,0-.038,0-.076,0-.114q0-11.646,0-23.293c0-.2,0-.4,0-.6,0-.268-.019-.287-.3-.29-.257,0-.514,0-.771,0h-6.116c-.349,0-.349,0-.343.338,0,.029,0,.057,0,.086v11.8Z" transform="translate(-2830.325 -485.532)" fill="#fff"/><path d="M2222.687,522.033q0,1.758,0,3.515,0,4.215-.005,8.431c0,.3.017.319.327.319l6.831,0c.067,0,.134-.005.2,0,.136,0,.189-.066.179-.2,0-.038,0-.076,0-.114q0-11.646,0-23.293c0-.2,0-.4,0-.6,0-.268-.019-.287-.3-.29-.257,0-.514,0-.772,0h-6.116c-.349,0-.349,0-.343.338,0,.029,0,.057,0,.086v11.8Z" transform="translate(-2116.874 -485.532)" fill="#fff"/></g></svg>